{"title":"Star.Wars.Episode.VII.The.Force.Awakens.2015.BONUS.DISC.1080p.Bl","uid":14432049,"size":31894036813,"categoryP":"video","categoryS":"hd___movies","magnet":"?xt=urn:btih:3cbbf7565015f1fcd4129d317387d0caca768109&amp;dn=Star.Wars.Episode.VII.The.Force.Awakens.2015.BONUS.DISC.1080p.Bl&amp;tr=udp%3A%2F%2Ftracker.leechers-paradise.org%3A6969&amp;tr=udp%3A%2F%2Fzer0day.ch%3A1337&amp;tr=udp%3A%2F%2Fopen.demonii.com%3A1337&amp;tr=udp%3A%2F%2Ftracker.coppersurfer.tk%3A6969&amp;tr=udp%3A%2F%2Fexodus.desync.com%3A6969","seeders":0,"leechers":1,"uploader":"Horisarte","files":11,"time":1461617347,"description":"Star.Wars.Episode.VII.The.Force.Awakens.2015.BONUS.DISC.1080p.BluRay.REMUX.AVC.DD5.1\r\n \nhttp://imdb.com/title/tt2488496/\r\n\r\nVideo\r\nID                                       : 1\r\nFormat                                   : AVC\r\nFormat/Info                              : Advanced Video Codec\r\nFormat profile                           :   \r\nFormat settings, CABAC                   : Yes\r\nFormat settings, ReFrames                : 4 frames\r\nCodec ID                                 : V_MPEG4/ISO/AVC\r\nDuration                                 : 1h 9mn\r\nBit rate mode                            : Variable\r\nBit rate                                 : 34.0 Mbps\r\nMaximum bit rate                         : 38.0 Mbps\r\nWidth                                    : 1 920 pixels\r\nHeight                                   : 1 080 pixels\r\nDisplay aspect ratio                     : 16:9\r\nFrame rate mode                          : Constant\r\nFrame rate                               : 23.976 (24000/1001) fps\r\nColor space                              : YUV\r\nChroma subsampling                       : 4:2:0\r\nBit depth                                : 8 bits\r\nScan type                                : Progressive\r\nBits/(Pixel*Frame)                       : 0.684\r\nStream size                              : 16.4 GiB (96%)\r\nTitle                                    : Secrets.of.The.Force.Awakens.A.Cinematic.Journey\r\nLanguage                                 : English\r\nDefault                                  : No\r\nForced                                   : No\r\n\r\nAudio\r\nID                                       : 2\r\nFormat                                   : AC-3\r\nFormat/Info                              : Audio Coding 3\r\nMode extension                           : CM (complete main)\r\nFormat settings, Endianness              : Big\r\nCodec ID                                 : A_AC3\r\nDuration                                 : 1h 9mn\r\nBit rate mode                            : Constant\r\nBit rate                                 : 640 Kbps\r\nChannel(s)                               : 6 channels\r\nChannel positions                        : Front: L C R, Side: L R, LFE\r\nSampling rate                            : 48.0 KHz\r\nFrame rate                               : 31.250 fps (1536 spf)\r\nCompression mode                         : Lossy\r\nStream size                              : 317 MiB (2%)\r\nTitle                                    : Secrets.of.The.Force.Awakens.A.Cinematic.Journey\r\nLanguage                                 : English\r\nDefault                                  : Yes\r\nForced                                   : No\r\n\r\nText #1\r\nID                                       : 3\r\nFormat                                   : PGS\r\nMuxing mode                              : zlib\r\nCodec ID                                 : S_HDMV/PGS\r\nCodec ID/Info                            : Picture based subtitle format used on BDs/HD-DVDs\r\nTitle                                    : English-PGS\r\nLanguage                                 : English\r\nDefault                                  : No\r\nForced                                   : No\r\n\r\nText #2\r\nID                                       : 4\r\nFormat                                   : PGS\r\nMuxing mode                              : zlib\r\nCodec ID                                 : S_HDMV/PGS\r\nCodec ID/Info                            : Picture based subtitle format used on BDs/HD-DVDs\r\nTitle                                    : French-PGS\r\nLanguage                                 : French\r\nDefault                                  : No\r\nForced                                   : No\r\n\r\nText #3\r\nID                                       : 5\r\nFormat                                   : PGS\r\nMuxing mode                              : zlib\r\nCodec ID                                 : S_HDMV/PGS\r\nCodec ID/Info                            : Picture based subtitle format used on BDs/HD-DVDs\r\nTitle                                    : Spanish-PGS\r\nLanguage                                 : Spanish\r\nDefault                                  : No\r\nForced                                   : No\r\n\r\nText #4\r\nID                                       : 6\r\nFormat                                   : PGS\r\nMuxing mode                              : zlib\r\nCodec ID                                 : S_HDMV/PGS\r\nCodec ID/Info                            : Picture based subtitle format used on BDs/HD-DVDs\r\nTitle                                    : Portuguese-PGS\r\nLanguage                                 : Portuguese\r\nDefault                                  : No\r\nForced                                   : No\r\n\r\n\r\nBonus Features:\r\n\r\nSecrets of The Force Awakens: A Cinematic Journey - for the first time, discover the complete story behind the making of The Force Awakens, revealed through in-depth footage and exclusive interviews with the actors and filmmakers in this feature documentary.\r\nThe Story Awakens: The Table Read - cast members familiar and new reflect on the memorable day they all first came together to read the movie's script.\r\nBuilding BB-8 - see how the filmmakers brought the newest droid to the screen, creating an instant fan favourite in the Star Wars universe.\r\nCrafting Creatures - watch movie magic as the filmmakers bring a cast of new creatures to life\r\nBlueprint of a Battle: The Snow Fight - go deeper into the epic, climactic lightsaber battle between Rey and Kylo Ren.\r\nJohn Williams: The Seventh Symphony - the legendary composer shares personal insights of his work on Star Wars and The Force Awakens.\r\nILM: The Visual Magic of The Force - an insider's look into the remarkable digital artistry of the movie's visual effects.\r\nForce For Change - heroes come in all shapes and sizes. See how the Star Wars: Force for change initiative has united Star Wars fans all over the globe to help others\r\n\r\nPlus deleted scenes","torrent":{"xt":"urn:btih:3cbbf7565015f1fcd4129d317387d0caca768109","amp;dn":"Star.Wars.Episode.VII.The.Force.Awakens.2015.BONUS.DISC.1080p.Bl","amp;tr":["udp%3A%2F%2Ftracker.leechers-paradise.org%3A6969","udp%3A%2F%2Fzer0day.ch%3A1337","udp%3A%2F%2Fopen.demonii.com%3A1337","udp%3A%2F%2Ftracker.coppersurfer.tk%3A6969","udp%3A%2F%2Fexodus.desync.com%3A6969"],"infoHash":"3cbbf7565015f1fcd4129d317387d0caca768109","infoHashBuffer":{"type":"Buffer","data":[60,187,247,86,80,21,241,252,212,18,157,49,115,135,208,202,202,118,129,9]},"announce":[],"urlList":[]}}